<?xml version="1.0" encoding="UTF-8"?>
<svg version="1.1" xmlns="http://www.w3.org/2000/svg" width="72" height="72">
<path d="M0 0 C23.76 0 47.52 0 72 0 C72 23.76 72 47.52 72 72 C48.24 72 24.48 72 0 72 C0 48.24 0 24.48 0 0 Z " fill="#373D45" transform="translate(0,0)"/>
<path d="M0 0 C0 1.65 0 3.3 0 5 C-4.95 5.33 -9.9 5.66 -15 6 C-15 7.65 -15 9.3 -15 11 C-12.48865887 13.01038506 -12.48865887 13.01038506 -9.25 14.5625 C-1.82020051 18.44789032 -1.82020051 18.44789032 1 22 C1.73377162 25.06457559 1.56834762 27.90818894 1 31 C-0.71761609 33.45373727 -1.84433953 34.58843224 -4.65625 35.58984375 C-8.01697496 36.17797062 -11.3512274 36.10426186 -14.75 36.0625 C-15.44738281 36.05798828 -16.14476562 36.05347656 -16.86328125 36.04882812 C-18.57555803 36.0371002 -20.28779033 36.01916653 -22 36 C-22 34.35 -22 32.7 -22 31 C-20.41058594 30.90912109 -20.41058594 30.90912109 -18.7890625 30.81640625 C-17.40102779 30.73199873 -16.01300768 30.64735083 -14.625 30.5625 C-13.92632812 30.52318359 -13.22765625 30.48386719 -12.5078125 30.44335938 C-8.62639508 30.25719866 -8.62639508 30.25719866 -5 29 C-4.51899569 26.651489 -4.51899569 26.651489 -5 24 C-7.51134113 21.98961494 -7.51134113 21.98961494 -10.75 20.4375 C-14.7584589 18.34128901 -18.12205452 16.54628353 -21 13 C-21.79190864 8.01097559 -21.80380719 6.16917409 -18.9375 2 C-13.82632201 -1.71835089 -6.01718898 -0.34449555 0 0 Z " fill="#F2850B" transform="translate(56,18)"/>
<path d="M0 0 C1.98 0 3.96 0 6 0 C6.01981934 0.83772949 6.03963867 1.67545898 6.06005859 2.53857422 C6.13810612 5.64365834 6.22479635 8.74834539 6.31738281 11.85302734 C6.37454036 13.85886971 6.42168596 15.86498918 6.46875 17.87109375 C6.50742187 19.12792969 6.54609375 20.38476562 6.5859375 21.6796875 C6.6173584 22.84226074 6.6487793 24.00483398 6.68115234 25.20263672 C6.72157869 28.13656482 6.72157869 28.13656482 9 30 C11.43252661 30.46162427 11.43252661 30.46162427 14.125 30.625 C15.03507812 30.69976562 15.94515625 30.77453125 16.8828125 30.8515625 C17.93082031 30.92503906 17.93082031 30.92503906 19 31 C19 32.65 19 34.3 19 36 C9.23172628 36.46189736 9.23172628 36.46189736 5 34.875 C1.66400535 31.74750502 0.14817968 28.37472506 -0.34057617 23.84033203 C-0.32486572 22.74060059 -0.30915527 21.64086914 -0.29296875 20.5078125 C-0.28330078 19.30898438 -0.27363281 18.11015625 -0.26367188 16.875 C-0.23853516 15.6375 -0.21339844 14.4 -0.1875 13.125 C-0.17396484 11.86429688 -0.16042969 10.60359375 -0.14648438 9.3046875 C-0.11123435 6.20268546 -0.06195504 3.10156466 0 0 Z " fill="#E3E3E4" transform="translate(14,18)"/>
</svg>
